<?xml version="1.0" encoding="UTF-8" standalone="no"?>
<svg
   xmlns:osb="http://www.openswatchbook.org/uri/2009/osb"
   xmlns:dc="http://purl.org/dc/elements/1.1/"
   xmlns:cc="http://creativecommons.org/ns#"
   xmlns:rdf="http://www.w3.org/1999/02/22-rdf-syntax-ns#"
   xmlns:svg="http://www.w3.org/2000/svg"
   xmlns="http://www.w3.org/2000/svg"
   xmlns:xlink="http://www.w3.org/1999/xlink"
   width="302.31314"
   height="518.21246"
   viewBox="0 0 79.987011 100.54761"
   version="1.1"
   id="svg8">
  <defs
     id="defs2">
    <pattern
       patternUnits="userSpaceOnUse"
       width="10"
       height="10"
       patternTransform="matrix(2.1166666,0,0,2.1166667,277.07636,120.28174)"
       id="pattern3220"
       >
      <circle
         style="fill:#7358ff;stroke:none"
         cx="2.567"
         cy="0.810"
         r="0.15"
         id="circle2297" />
      <circle
         style="fill:#7358ff;stroke:none"
         cx="3.048"
         cy="2.33"
         r="0.15"
         id="circle2299" />
      <circle
         style="fill:#7358ff;stroke:none"
         cx="4.418"
         cy="2.415"
         r="0.15"
         id="circle2301" />
      <circle
         style="fill:#7358ff;stroke:none"
         cx="1.844"
         cy="3.029"
         r="0.15"
         id="circle2303" />
      <circle
         style="fill:#7358ff;stroke:none"
         cx="6.08"
         cy="1.363"
         r="0.15"
         id="circle2305" />
      <circle
         style="fill:#7358ff;stroke:none"
         cx="5.819"
         cy="4.413"
         r="0.15"
         id="circle2307" />
      <circle
         style="fill:#7358ff;stroke:none"
         cx="4.305"
         cy="4.048"
         r="0.15"
         id="circle2309" />
      <circle
         style="fill:#7358ff;stroke:none"
         cx="5.541"
         cy="3.045"
         r="0.15"
         id="circle2311" />
      <circle
         style="fill:#7358ff;stroke:none"
         cx="4.785"
         cy="5.527"
         r="0.15"
         id="circle2313" />
      <circle
         style="fill:#7358ff;stroke:none"
         cx="2.667"
         cy="5.184"
         r="0.15"
         id="circle2315" />
      <circle
         style="fill:#7358ff;stroke:none"
         cx="7.965"
         cy="1.448"
         r="0.15"
         id="circle2317" />
      <circle
         style="fill:#7358ff;stroke:none"
         cx="7.047"
         cy="5.049"
         r="0.15"
         id="circle2319" />
      <circle
         style="fill:#7358ff;stroke:none"
         cx="4.340"
         cy="0.895"
         r="0.15"
         id="circle2321" />
      <circle
         style="fill:#7358ff;stroke:none"
         cx="7.125"
         cy="0.340"
         r="0.15"
         id="circle2323" />
      <circle
         style="fill:#7358ff;stroke:none"
         cx="9.553"
         cy="1.049"
         r="0.15"
         id="circle2325" />
      <circle
         style="fill:#7358ff;stroke:none"
         cx="7.006"
         cy="2.689"
         r="0.15"
         id="circle2327" />
      <circle
         style="fill:#7358ff;stroke:none"
         cx="8.909"
         cy="2.689"
         r="0.15"
         id="circle2329" />
      <circle
         style="fill:#7358ff;stroke:none"
         cx="9.315"
         cy="4.407"
         r="0.15"
         id="circle2331" />
      <circle
         style="fill:#7358ff;stroke:none"
         cx="7.820"
         cy="3.870"
         r="0.15"
         id="circle2333" />
      <circle
         style="fill:#7358ff;stroke:none"
         cx="8.270"
         cy="5.948"
         r="0.15"
         id="circle2335" />
      <circle
         style="fill:#7358ff;stroke:none"
         cx="7.973"
         cy="7.428"
         r="0.15"
         id="circle2337" />
      <circle
         style="fill:#7358ff;stroke:none"
         cx="9.342"
         cy="8.072"
         r="0.15"
         id="circle2339" />
      <circle
         style="fill:#7358ff;stroke:none"
         cx="8.206"
         cy="9.315"
         r="0.15"
         id="circle2341" />
      <circle
         style="fill:#7358ff;stroke:none"
         cx="9.682"
         cy="9.475"
         r="0.15"
         id="circle2343" />
      <circle
         style="fill:#7358ff;stroke:none"
         cx="9.688"
         cy="6.186"
         r="0.15"
         id="circle2345" />
      <circle
         style="fill:#7358ff;stroke:none"
         cx="3.379"
         cy="6.296"
         r="0.15"
         id="circle2347" />
      <circle
         style="fill:#7358ff;stroke:none"
         cx="2.871"
         cy="8.204"
         r="0.15"
         id="circle2349" />
      <circle
         style="fill:#7358ff;stroke:none"
         cx="4.59"
         cy="8.719"
         r="0.15"
         id="circle2351" />
      <circle
         style="fill:#7358ff;stroke:none"
         cx="3.181"
         cy="9.671"
         r="0.15"
         id="circle2353" />
      <circle
         style="fill:#7358ff;stroke:none"
         cx="5.734"
         cy="7.315"
         r="0.15"
         id="circle2355" />
      <circle
         style="fill:#7358ff;stroke:none"
         cx="6.707"
         cy="6.513"
         r="0.15"
         id="circle2357" />
      <circle
         style="fill:#7358ff;stroke:none"
         cx="5.730"
         cy="9.670"
         r="0.15"
         id="circle2359" />
      <circle
         style="fill:#7358ff;stroke:none"
         cx="6.535"
         cy="8.373"
         r="0.15"
         id="circle2361" />
      <circle
         style="fill:#7358ff;stroke:none"
         cx="4.37"
         cy="7.154"
         r="0.15"
         id="circle2363" />
      <circle
         style="fill:#7358ff;stroke:none"
         cx="0.622"
         cy="7.25"
         r="0.15"
         id="circle2365" />
      <circle
         style="fill:#7358ff;stroke:none"
         cx="0.831"
         cy="5.679"
         r="0.15"
         id="circle2367" />
      <circle
         style="fill:#7358ff;stroke:none"
         cx="1.257"
         cy="8.519"
         r="0.15"
         id="circle2369" />
      <circle
         style="fill:#7358ff;stroke:none"
         cx="1.989"
         cy="6.877"
         r="0.15"
         id="circle2371" />
      <circle
         style="fill:#7358ff;stroke:none"
         cx="0.374"
         cy="3.181"
         r="0.15"
         id="circle2373" />
      <circle
         style="fill:#7358ff;stroke:none"
         cx="1.166"
         cy="1.664"
         r="0.15"
         id="circle2375" />
      <circle
         style="fill:#7358ff;stroke:none"
         cx="1.151"
         cy="0.093"
         r="0.15"
         id="circle2377" />
      <circle
         style="fill:#7358ff;stroke:none"
         cx="1.151"
         cy="10.093"
         r="0.15"
         id="circle2379" />
      <circle
         style="fill:#7358ff;stroke:none"
         cx="1.302"
         cy="4.451"
         r="0.15"
         id="circle2381" />
      <circle
         style="fill:#7358ff;stroke:none"
         cx="3.047"
         cy="3.763"
         r="0.15"
         id="circle2383" />
    </pattern>
    <linearGradient
       id="linearGradient2954">
      <stop
         style="stop-color:#7358ff;stop-opacity:1;"
         offset="0"
         id="stop2950" />
      <stop
         style="stop-color:#000000;stop-opacity:1"
         offset="1"
         id="stop2952" />
    </linearGradient>
    <linearGradient
       id="linearGradient2956"
       x1="306.52713"
       y1="51.167912"
       x2="305.62845"
       y2="108.64259"
       gradientUnits="userSpaceOnUse"
       gradientTransform="translate(0,1.7186172)">
       <stop
         style="stop-color:#7358ff;stop-opacity:1;"
         offset="0"
         id="stop2950" />
      <stop
         style="stop-color:#000000;stop-opacity:1"
         offset="1"
         id="stop2952" />
       </linearGradient>
    <linearGradient
       id="linearGradient912"
       x1="252.97839"
       y1="29.8883"
       x2="276.24304"
       y2="29.8883"
       gradientUnits="userSpaceOnUse"
       gradientTransform="translate(66.009872,59.750426)" >
       <stop
         style="stop-color:#7358ff;stop-opacity:1;"
         offset="0"
         id="stop2950" />
      <stop
         style="stop-color:#000000;stop-opacity:1"
         offset="1"
         id="stop2952" />
       </linearGradient>
    <linearGradient
       id="linearGradient914"
       x1="256.43591"
       y1="37.946644"
       x2="289.22449"
       y2="37.946644"
       gradientUnits="userSpaceOnUse"
       gradientTransform="translate(66.009872,59.750426)" >
       <stop
         style="stop-color:#7358ff;stop-opacity:1;"
         offset="0"
         id="stop2950" />
      <stop
         style="stop-color:#000000;stop-opacity:1"
         offset="1"
         id="stop2952" />
       </linearGradient>
    <clipPath
       clipPathUnits="userSpaceOnUse"
       id="clipPath3247">
      <path
         id="path3249"
         style="display:inline;fill:#4825ff;fill-opacity:1;stroke:none;stroke-width:0.264583px;stroke-linecap:butt;stroke-linejoin:miter;stroke-opacity:1"
         d="m 313.04935,119.43468 0.73615,7.31878 1.03888,3.78592 c 0,0 0.45381,1.64855 -0.32699,2.09473 -0.78081,0.44617 -5.61438,0.29744 -6.358,-0.11155 -0.74362,-0.40899 -1.15262,-1.00389 -1.15262,-1.45007 0,-0.44617 0.92953,-4.38739 0.92953,-4.38739 l 0.63208,-7.25042 z m -15.83978,-0.10016 -0.73615,7.31878 -1.03888,3.78592 c 0,0 -0.45381,1.64855 0.32699,2.09473 0.78081,0.44617 5.61438,0.29744 6.358,-0.11155 0.74362,-0.40899 1.15262,-1.00389 1.15262,-1.45007 0,-0.44617 -0.92953,-4.38739 -0.92953,-4.38739 l -0.63208,-7.25042 z" />
    </clipPath>
    <clipPath
       clipPathUnits="userSpaceOnUse"
       id="clipPath3247-2">
      <path
         id="path3249-7"
         style="display:inline;fill:#4825ff;fill-opacity:1;stroke:none;stroke-width:0.264583px;stroke-linecap:butt;stroke-linejoin:miter;stroke-opacity:1"
         d="m 313.04935,119.43468 0.73615,7.31878 1.03888,3.78592 c 0,0 0.45381,1.64855 -0.32699,2.09473 -0.78081,0.44617 -5.61438,0.29744 -6.358,-0.11155 -0.74362,-0.40899 -1.15262,-1.00389 -1.15262,-1.45007 0,-0.44617 0.92953,-4.38739 0.92953,-4.38739 l 0.63208,-7.25042 z m -15.83978,-0.10016 -0.73615,7.31878 -1.03888,3.78592 c 0,0 -0.45381,1.64855 0.32699,2.09473 0.78081,0.44617 5.61438,0.29744 6.358,-0.11155 0.74362,-0.40899 1.15262,-1.00389 1.15262,-1.45007 0,-0.44617 -0.92953,-4.38739 -0.92953,-4.38739 l -0.63208,-7.25042 z" />
    </clipPath>
    <linearGradient
       xlink:href="#linearGradient2954"
       id="linearGradient1657"
       gradientUnits="userSpaceOnUse"
       gradientTransform="translate(66.009872,61.469043)"
       x1="252.97839"
       y1="29.8883"
       x2="276.24304"
       y2="29.8883" >
       <stop
         style="stop-color:#7358ff;stop-opacity:1;"
         offset="0"
         id="stop2950" />
      <stop
         style="stop-color:#000000;stop-opacity:1"
         offset="1"
         id="stop2952" />
       </linearGradient>
    <linearGradient
       xlink:href="#linearGradient2954"
       id="linearGradient1659"
       gradientUnits="userSpaceOnUse"
       gradientTransform="translate(66.009872,61.469043)"
       x1="252.97839"
       y1="29.8883"
       x2="276.24304"
       y2="29.8883" >
       <stop
         style="stop-color:#7358ff;stop-opacity:1;"
         offset="0"
         id="stop2950" />
      <stop
         style="stop-color:#000000;stop-opacity:1"
         offset="1"
         id="stop2952" />
       </linearGradient>
    <linearGradient
       xlink:href="#linearGradient2954"
       id="linearGradient1661"
       gradientUnits="userSpaceOnUse"
       gradientTransform="translate(66.009872,61.469043)"
       x1="252.97839"
       y1="29.8883"
       x2="276.24304"
       y2="29.8883" >
       <stop
         style="stop-color:#7358ff;stop-opacity:1;"
         offset="0"
         id="stop2950" />
      <stop
         style="stop-color:#000000;stop-opacity:1"
         offset="1"
         id="stop2952" />
       </linearGradient>
    <linearGradient
       xlink:href="#linearGradient2954"
       id="linearGradient1663"
       gradientUnits="userSpaceOnUse"
       gradientTransform="translate(66.009872,61.469043)"
       x1="252.97839"
       y1="29.8883"
       x2="276.24304"
       y2="29.8883" >
       <stop
         style="stop-color:#7358ff;stop-opacity:1;"
         offset="0"
         id="stop2950" />
      <stop
         style="stop-color:#000000;stop-opacity:1"
         offset="1"
         id="stop2952" />
       </linearGradient>
    <linearGradient
       xlink:href="#linearGradient2954"
       id="linearGradient1665"
       gradientUnits="userSpaceOnUse"
       gradientTransform="translate(66.009872,61.469043)"
       x1="256.43591"
       y1="37.946644"
       x2="289.22449"
       y2="37.946644" >
       <stop
         style="stop-color:#7358ff;stop-opacity:1;"
         offset="0"
         id="stop2950" />
      <stop
         style="stop-color:#000000;stop-opacity:1"
         offset="1"
         id="stop2952" />
       </linearGradient>
    <linearGradient
       xlink:href="#linearGradient2954"
       id="linearGradient1667"
       gradientUnits="userSpaceOnUse"
       gradientTransform="translate(66.009872,61.469043)"
       x1="256.43591"
       y1="37.946644"
       x2="289.22449"
       y2="37.946644" >
       <stop
         style="stop-color:#7358ff;stop-opacity:1;"
         offset="0"
         id="stop2950" />
      <stop
         style="stop-color:#000000;stop-opacity:1"
         offset="1"
         id="stop2952" />
       </linearGradient>
    <linearGradient
       xlink:href="#linearGradient2954"
       id="linearGradient1669"
       gradientUnits="userSpaceOnUse"
       gradientTransform="translate(66.009872,61.469043)"
       x1="256.43591"
       y1="37.946644"
       x2="289.22449"
       y2="37.946644" >
       <stop
         style="stop-color:#7358ff;stop-opacity:1;"
         offset="0"
         id="stop2950" />
      <stop
         style="stop-color:#000000;stop-opacity:1"
         offset="1"
         id="stop2952" />
       </linearGradient>
    <linearGradient
       xlink:href="#linearGradient2954"
       id="linearGradient1671"
       gradientUnits="userSpaceOnUse"
       gradientTransform="translate(66.009872,61.469043)"
       x1="256.43591"
       y1="37.946644"
       x2="289.22449"
       y2="37.946644" >
       <stop
         style="stop-color:#7358ff;stop-opacity:1;"
         offset="0"
         id="stop2950" />
      <stop
         style="stop-color:#000000;stop-opacity:1"
         offset="1"
         id="stop2952" />
       </linearGradient>
    <linearGradient
       xlink:href="#linearGradient2954"
       id="linearGradient1673"
       gradientUnits="userSpaceOnUse"
       gradientTransform="translate(66.009872,61.469043)"
       x1="256.43591"
       y1="37.946644"
       x2="289.22449"
       y2="37.946644" >
       <stop
         style="stop-color:#7358ff;stop-opacity:1;"
         offset="0"
         id="stop2950" />
      <stop
         style="stop-color:#000000;stop-opacity:1"
         offset="1"
         id="stop2952" />
       </linearGradient>
  </defs>
  <metadata
     id="metadata5">
    <rdf:RDF>
      <cc:Work
         rdf:about="">
        <dc:format>image/svg+xml</dc:format>
        <dc:type
           rdf:resource="http://purl.org/dc/dcmitype/StillImage" />
        <dc:title></dc:title>
      </cc:Work>
    </rdf:RDF>
  </metadata>
  <g
     id="layer6"
     transform="translate(-277.20048,-45.124313)"
     style="display:inline">
    <rect
       style="display:inline;opacity:1;fill:#aaaaff;fill-opacity:1;stroke:none;stroke-width:0.272886"
       id="rect904"
       width="42.333332"
       height="14.55208"
       x="314.85416"
       y="91.676956"
       ry="4.0488591" />
    <rect
       style="display:inline;opacity:1;fill:#aaaaff;fill-opacity:1;stroke:none;stroke-width:0.264914"
       id="rect902"
       width="26.458334"
       height="9.2604198"
       x="317.5"
       y="86.385284"
       ry="2.6458361" />
  </g>
  <g
     id="layer3"
     style="display:inline"
     transform="translate(-277.20048,-45.124313)">
    <path
       style="opacity:1;fill:url(#linearGradient2956);fill-opacity:1;stroke:none;stroke-width:0.264583;stroke-linecap:butt;stroke-linejoin:miter;stroke-miterlimit:4;stroke-dasharray:none;stroke-opacity:1"
       d="m 292.13096,102.57341 c -0.0424,-0.86552 -0.69762,-1.16418 -0.69762,-1.16418 -0.61173,0.86254 -0.74069,1.77816 -0.74069,1.77816 h -4.43204 c -1.01703,-1.62577 0.0792,-1.92334 0.0792,-1.92334 2.58769,-1.832855 0.54601,-3.11914 0.54601,-3.11914 -7.38137,-5.329203 -1.74362,-8.878173 0.11763,-11.06461 1.86125,-2.186436 0.30531,-1.265629 -1.43179,-3.69277 -4.46629,-6.24046 0.70678,-8.926215 0.70678,-8.926215 3.32572,-3.621186 -0.49995,-5.757299 -0.49995,-5.757299 -1.91115,-1.398782 -2.82476,-3.850847 -2.82476,-3.850847 -0.96464,-5.428925 4.13692,-7.056696 4.13692,-7.056696 0.80012,-1.252725 -0.58591,-1.855081 -0.58591,-1.855081 -1.85374,0.321324 -1.67149,-1.773899 -3.09068,-3.58761 -2.23449,-2.85565 3.22142,-6.111903 3.22142,-6.111903 2.22038,-1.274232 3.33372,-3.331283 2.17916,-4.458841 -1.2709,-1.241187 -1.1514,-2.547492 -1.1514,-2.547492 -0.14208,-8.729447 6.73482,-7.149577 6.73482,-7.149577 0,0 0.63631,0.06938 0.85277,-0.218916 0,0 2.87629,-4.673546 9.6909,-4.969687 0,0 13.10789,-1.624766 14.11004,12.87988 0,0 -0.2906,1.962981 2.83763,3.054634 0,0 8.82464,3.038252 1.19802,12.775047 0,0 -0.61396,1.166203 0.64412,2.108045 0,0 4.56771,3.156962 0.84735,8.142763 0,0 -4.55156,2.876807 0.24668,6.689758 0,0 4.66148,3.110665 -0.79797,9.771459 0,0 -3.1401,1.246925 1.14626,4.542777 0,0 3.54063,2.777566 -1.07812,9.676491 0,0 -0.94113,1.117769 0.3096,3.50953 0,0 0.92401,1.04203 -0.48982,3.13964 h -3.01971 c 0,0 -0.13747,-3.392018 -1.11896,-3.537318 0,0 -0.91304,2.533258 -1.835,3.537318 l -1.18792,0.0241 z"
       id="path894" />
    <text
       xml:space="preserve"
       style="font-style:normal;font-weight:normal;font-size:10.5833px;line-height:1.25;font-family:sans-serif;fill:#7358ff;fill-opacity:1;stroke:none;stroke-width:0.264583"
       x="247.55782"
       y="38.71833"
       id="text1033"><tspan
         x="0"
         y="0"
         style="fill:#7358ff;fill-opacity:1;stroke-width:0.264583"
         id="tspan1035"><tspan
           style="font-style:normal;font-variant:normal;font-weight:normal;font-stretch:normal;font-family:'Open Sans';-inkscape-font-specification:'Open Sans'"
           id="tspan888" /></tspan></text>
  </g>
  <g
     id="layer1"
     transform="translate(-277.20048,-45.124313)">
    <g
       aria-label="Note"
       id="text894"
       style="font-style:normal;font-weight:normal;font-size:10.5833px;line-height:1.25;font-family:sans-serif;display:inline;fill:url(#linearGradient912);fill-opacity:1;stroke:none;stroke-width:0.264583">
      <path
         d="m 324.85869,95.124539 h -1.26607 l -3.64834,-6.883279 v 6.883279 h -0.95601 v -7.694596 h 1.58646 l 3.32795,6.283834 v -6.283834 h 0.95601 z"
         style="fill:url(#linearGradient1657);fill-opacity:1;stroke-width:0.264583"
         id="path899" />
      <path
         d="m 331.74714,92.241003 q 0,1.410762 -0.72347,2.227247 -0.72347,0.816485 -1.93786,0.816485 -1.22473,0 -1.94819,-0.816485 -0.7183,-0.816485 -0.7183,-2.227247 0,-1.410762 0.7183,-2.227247 0.72346,-0.821653 1.94819,-0.821653 1.21439,0 1.93786,0.821653 0.72347,0.816485 0.72347,2.227247 z m -1.00252,0 q 0,-1.121375 -0.43925,-1.663976 -0.43925,-0.547768 -1.21956,-0.547768 -0.79065,0 -1.22989,0.547768 -0.43409,0.542601 -0.43409,1.663976 0,1.085202 0.43925,1.648473 0.43925,0.558104 1.22473,0.558104 0.77514,0 1.21439,-0.552936 0.44442,-0.558104 0.44442,-1.653641 z"
         style="fill:url(#linearGradient1659);fill-opacity:1;stroke-width:0.264583"
         id="path901" />
      <path
         d="m 336.24814,95.072863 q -0.27388,0.07235 -0.59944,0.118855 -0.3204,0.04651 -0.57361,0.04651 -0.88366,0 -1.34358,-0.475422 -0.45992,-0.475422 -0.45992,-1.52445 v -3.06957 h -0.65629 v -0.816485 h 0.65629 v -1.658808 h 0.97151 v 1.658808 h 2.00504 v 0.816485 h -2.00504 v 2.630322 q 0,0.454751 0.0207,0.713132 0.0207,0.253214 0.1447,0.475422 0.11368,0.206705 0.31005,0.30489 0.20154,0.09302 0.60978,0.09302 0.23771,0 0.4961,-0.06718 0.25838,-0.07235 0.37206,-0.118855 h 0.0517 z"
         style="fill:url(#linearGradient1661);fill-opacity:1;stroke-width:0.264583"
         id="path903" />
      <path
         d="m 342.25292,92.339188 h -4.25295 q 0,0.532266 0.16019,0.930173 0.1602,0.39274 0.43925,0.645953 0.26872,0.248046 0.63562,0.372069 0.37207,0.124023 0.81648,0.124023 0.58911,0 1.18339,-0.232543 0.59945,-0.237711 0.85266,-0.465086 h 0.0517 v 1.059363 q -0.49093,0.206705 -1.00252,0.346231 -0.5116,0.139526 -1.07487,0.139526 -1.4366,0 -2.24275,-0.775144 -0.80615,-0.780311 -0.80615,-2.211744 0,-1.41593 0.76998,-2.247918 0.77514,-0.831988 2.03604,-0.831988 1.16788,0 1.79834,0.682127 0.63561,0.682127 0.63561,1.93786 z m -0.94567,-0.744138 q -0.005,-0.764809 -0.38757,-1.183387 -0.37724,-0.418577 -1.15239,-0.418577 -0.78031,0 -1.24539,0.459918 -0.45992,0.459919 -0.52193,1.142046 z"
         style="fill:url(#linearGradient1663);fill-opacity:1;stroke-width:0.264583"
         id="path905" />
    </g>
    <g
       aria-label="Wordh"
       id="text898"
       style="font-style:normal;font-weight:normal;font-size:10.5833px;line-height:1.25;font-family:sans-serif;display:inline;fill:url(#linearGradient914);fill-opacity:1;stroke:none;stroke-width:0.264583">
      <path
         d="m 331.95936,95.661411 -1.99987,7.694599 h -1.15238 l -1.61747,-6.38719 -1.58129,6.38719 h -1.12655 l -2.03604,-7.694599 h 1.04903 l 1.61746,6.397529 1.59163,-6.397529 h 1.0387 l 1.60713,6.459539 1.60713,-6.459539 z"
         style="fill:url(#linearGradient1665);fill-opacity:1;stroke-width:0.264583"
         id="path909" />
      <path
         d="m 337.79361,100.47247 q 0,1.41077 -0.72347,2.22725 -0.72347,0.81649 -1.93786,0.81649 -1.22473,0 -1.94819,-0.81649 -0.7183,-0.81648 -0.7183,-2.22725 0,-1.410761 0.7183,-2.227246 0.72346,-0.821652 1.94819,-0.821652 1.21439,0 1.93786,0.821652 0.72347,0.816485 0.72347,2.227246 z m -1.00252,0 q 0,-1.121374 -0.43925,-1.663974 -0.43925,-0.547769 -1.21956,-0.547769 -0.79064,0 -1.22989,0.547769 -0.43408,0.5426 -0.43408,1.663974 0,1.0852 0.43924,1.64848 0.43925,0.5581 1.22473,0.5581 0.77515,0 1.21439,-0.55294 0.44442,-0.5581 0.44442,-1.65364 z"
         style="fill:url(#linearGradient1667);fill-opacity:1;stroke-width:0.264583"
         id="path911" />
      <path
         d="m 342.89922,98.643132 h -0.0517 q -0.21704,-0.05168 -0.42375,-0.07235 -0.20154,-0.02584 -0.48059,-0.02584 -0.44958,0 -0.86816,0.201537 -0.41858,0.19637 -0.80615,0.511595 V 103.356 h -0.97151 v -5.772237 h 0.97151 v 0.852658 q 0.57878,-0.465086 1.01802,-0.656288 0.44442,-0.19637 0.90434,-0.19637 0.25321,0 0.3669,0.0155 0.11369,0.01033 0.34106,0.04651 z"
         style="fill:url(#linearGradient1669);fill-opacity:1;stroke-width:0.264583"
         id="path913" />
      <path
         d="m 348.49576,103.35601 h -0.97151 v -0.60461 q -0.41858,0.36173 -0.87333,0.56327 -0.45475,0.20154 -0.98702,0.20154 -1.03352,0 -1.6433,-0.79582 -0.60461,-0.79581 -0.60461,-2.20658 0,-0.733801 0.2067,-1.307407 0.21187,-0.573607 0.56844,-0.976682 0.3514,-0.392739 0.81649,-0.599444 0.47025,-0.206705 0.97151,-0.206705 0.45475,0 0.80615,0.09819 0.3514,0.09302 0.73897,0.294554 v -2.501131 h 0.97151 z m -0.97151,-1.4211 v -3.312449 q -0.39274,-0.175699 -0.7028,-0.242878 -0.31005,-0.06718 -0.67696,-0.06718 -0.81648,0 -1.27123,0.568439 -0.45475,0.568439 -0.45475,1.612298 0,1.02836 0.3514,1.5658 0.35139,0.53226 1.12654,0.53226 0.41341,0 0.83715,-0.18087 0.42375,-0.18603 0.79065,-0.47542 z"
         style="fill:url(#linearGradient1671);fill-opacity:1;stroke-width:0.264583"
         id="path915" />
      <path
         d="m 355.23435,103.35601 h -0.97151 v -3.28661 q 0,-0.397911 -0.0465,-0.744142 -0.0465,-0.351398 -0.17054,-0.547768 -0.12919,-0.217041 -0.37206,-0.320393 -0.24288,-0.10852 -0.63045,-0.10852 -0.39791,0 -0.83199,0.19637 -0.43408,0.196369 -0.83199,0.501259 v 4.309804 h -0.97151 v -8.04083 h 0.97151 v 2.909374 q 0.45475,-0.377237 0.94051,-0.58911 0.48575,-0.211872 0.99735,-0.211872 0.93534,0 1.42626,0.563271 0.49093,0.563271 0.49093,1.622635 z"
         style="fill:url(#linearGradient1673);fill-opacity:1;stroke-width:0.264583"
         id="path917" />
    </g>
  </g>
  <g
     id="layer9"
     style="display:inline"
     transform="translate(-277.20048,-45.124313)">
    <path
       style="display:inline;opacity:1;fill:#aaaaff;fill-opacity:1;stroke:#aaaaff;stroke-width:0.264583px;stroke-linecap:butt;stroke-linejoin:miter;stroke-opacity:1"
       d="m 304.17465,103.18739 -12.597,3e-5 c 0,0 5.03958,-13.915242 4.95658,-20.488243 l -0.0498,-18.402547 c 0,0 1.03996,-2.061294 5.79214,-2.023884 h 1.06793 c 2.39687,-1.5e-4 4.79376,-0.0218 7.19061,-0.009 0,0 3.50239,-0.286792 5.40815,2.061521 l -0.72632,18.200202 c -0.03,5.362074 0.35329,7.068387 0.35329,7.068387 0.34762,3.556496 2.73684,9.143849 2.73684,9.143849 0.33824,1.340685 -0.44609,4.449685 -0.44609,4.449685 z"
       id="path886" />
    <g
       id="layer11">
      <path
         style="fill:#ffccaa;fill-opacity:1;stroke:#ffccaa;stroke-width:0.264583px;stroke-linecap:butt;stroke-linejoin:miter;stroke-opacity:1"
         d="m 303.55635,62.181551 0.68729,-4.060697 4.04282,0.02057 0.41381,4.064459 z"
         id="path1000" />
      <path
         style="display:inline;opacity:1;fill:#fee1d1;fill-opacity:1;stroke:#fee1d1;stroke-width:0.264583px;stroke-linecap:butt;stroke-linejoin:miter;stroke-opacity:1"
         d="m 302.78867,62.272746 c 0,0 3.61496,4.861322 7.0541,-0.009 z"
         id="path946" />
    </g>
    <g
       id="layer13">
      <path
         style="fill:#aaaaff;stroke:#aaaaff;stroke-width:0.264583px;stroke-linecap:butt;stroke-linejoin:miter;stroke-opacity:1"
         d="m 296.38135,79.4612 -2.59466,2.545729 c 0,0 0.7833,2.251987 -2.59469,2.692595 -3.37799,0.440606 -3.76965,-3.377985 -3.76965,-3.377985 l -0.34269,-5.091454 c 0,0 -0.0979,-3.573809 3.0353,-4.699802 0,0 2.3499,1.909295 1.126,4.259197 l 0.58747,3.377984 z"
         id="path962" />
      <path
         style="fill:#aaaaff;fill-opacity:1;stroke:#aaaaff;stroke-width:0.264583px;stroke-linecap:butt;stroke-linejoin:miter;stroke-opacity:1"
         d="m 315.18058,79.657026 2.88843,2.251988 c 0,0 -0.34272,2.447814 2.83945,2.986334 3.18215,0.538519 3.57381,-2.986334 3.57381,-2.986334 l 0.34269,-5.874752 c 0,0 0.049,-4.552937 -3.37799,-4.650849 0,0 -2.20302,2.056165 -1.41972,4.455024 l 0.0979,3.182158 z"
         id="path964" />
    </g>
  </g>
  <g
     id="layer4"
     style="display:inline"
     transform="translate(-277.20048,-45.124313)">
    <g
       id="layer5"
       style="display:inline">
      <path
         style="display:inline;opacity:1;fill:#fff6d5;stroke:none;stroke-width:0.264583px;stroke-linecap:butt;stroke-linejoin:miter;stroke-opacity:1"
         d="m 292.05057,64.320642 c 0,0 0.064,-1.76457 4.78007,-0.197128 l 8.8213,3.693055 8.80338,-3.426419 c 0,0 3.38287,-1.563182 5.08255,-0.08121 l -13.80585,4.259488 z"
         id="path870" />
    </g>
    <g
       id="layer7"
       style="display:inline">
      <path
         style="display:inline;opacity:1;fill:#f79a1c;fill-opacity:1;stroke:none;stroke-width:0.264583px;stroke-linecap:butt;stroke-linejoin:miter;stroke-opacity:1"
         d="m 292.05057,64.320642 12.61727,3.865112 c 0,0 1.00927,-0.719853 1.94078,0.05663 l 12.92925,-3.933445 c 0,0 0.93638,-0.182338 1.04868,0.730301 l -0.64293,16.086569 c 0,0 0.13711,0.632128 -0.79915,0.791081 l -12.0496,2.754077 c 0,0 -1.09794,1.284287 -2.67888,-0.0136 l -12.38825,-2.80797 c 0,0 -0.63038,-0.09674 -0.63917,-0.669753 l -0.5974,-15.917467 c 0,0 -0.15074,-1.195029 1.2594,-0.941535 z"
         id="path860" />
    </g>
    <g
       id="layer8"
       style="opacity:1">
      <path
         style="display:inline;opacity:1;fill:#f7761c;fill-opacity:1;stroke:none;stroke-width:0.264583px;stroke-linecap:butt;stroke-linejoin:miter;stroke-opacity:1"
         d="m 304.41599,84.657367 -0.10132,-15.875718 c -0.081,-0.331145 0.47136,-0.692758 0.47136,-0.692758 0.29373,-0.244781 0.86591,-0.272322 0.86591,-0.272322 0,0 0.75664,0.163724 1.0259,0.408506 0,0 0.4002,0.35777 0.32322,1.024911 l 0.0938,15.420982 c 0,0 -0.20121,0.51948 -1.26601,0.543958 -0.99985,0.02083 -1.41286,-0.557559 -1.41286,-0.557559 z"
         id="path864" />
    </g>
  </g>
  <g
     id="layer14"
     transform="translate(-277.20048,-45.124313)">
    <path
       style="fill:#fee1d1;fill-opacity:1;stroke:#fee1d1;stroke-width:0.264583px;stroke-linecap:butt;stroke-linejoin:miter;stroke-opacity:1"
       d="m 290.11496,71.530281 c 0,0 -0.44061,-0.783299 0.24477,-1.077037 l 2.96187,0.02448 c 0,0 1.76242,2.790508 0,5.483104 l -2.88842,-0.09791 c 0,0 -0.95465,-0.85674 -0.31822,-4.332634 z"
       id="path967" />
    <path
       style="display:inline;fill:#fee1d1;fill-opacity:1;stroke:#fee1d1;stroke-width:0.264583px;stroke-linecap:butt;stroke-linejoin:miter;stroke-opacity:1"
       d="m 321.44697,71.383373 c 0,0 0.44061,-0.7833 -0.24477,-1.07703 l -2.96187,0.0245 c 0,0 -1.76242,2.7905 0,5.4831 l 2.88842,-0.0979 c 0,0 0.95465,-0.85674 0.31822,-4.33263 z"
       id="path967-5" />
  </g>
  <g
     id="layer2"
     style="display:inline;opacity:1"
     transform="translate(-277.20048,-45.124313)">
    <path
       style="fill:#fee1d1;fill-opacity:1;stroke:none;stroke-width:0.264583px;stroke-linecap:butt;stroke-linejoin:miter;stroke-opacity:1"
       d="m 295.885,37.485547 c 0,0 0.79171,6.916348 -2.06561,9.481566 l 0.0933,1.15804 c 0,0 -1.78789,0.387804 -1.36567,1.911321 0,0 0.41819,2.317257 2.7054,1.303594 0,0 4.13322,6.701796 9.85375,6.929274 l 1.25676,0.0064 c 0,0 7.33957,0.533336 10.718,-6.957163 0,0 1.51462,1.330622 2.88201,-0.911424 0,0 0.8384,-2.277805 -1.47718,-2.190339 l 0.0361,-0.595137 c 0,0 -2.87044,0.520175 -5.7642,-2.768775 0,0 -2.68944,-6.336233 -7.56218,-4.178127 0,0 -5.66545,1.95564 -9.31048,-3.18923 z"
       id="path858" />
    <path
       style="fill:none;stroke:#000000;stroke-width:0.264583px;stroke-linecap:butt;stroke-linejoin:miter;stroke-opacity:1"
       d="M 304.66784,66.467137 Z"
       id="path862" />
    <path
       style="opacity:0.33;fill:none;stroke:#7358d4;stroke-width:0.264583px;stroke-linecap:butt;stroke-linejoin:miter;stroke-opacity:1"
       d="m 296.97966,49.860621 c 0,0 2.85784,-2.664433 5.55752,-0.236376"
       id="path898" />
    <path
       style="fill:none;stroke:#ffaaaa;stroke-width:0.264583px;stroke-linecap:butt;stroke-linejoin:miter;stroke-opacity:1"
       d="m 304.8735,55.739075 c 0,0 1.48439,0.768221 2.94394,-0.08428"
       id="path902" />
    <path
       style="fill:#ffccaa;stroke:#ffccaa;stroke-width:0.264583px;stroke-linecap:butt;stroke-linejoin:miter;stroke-opacity:1"
       d="m 296.0742,52.33644 c 0,0 2.66368,-1.828791 3.87368,-0.807172 0.91958,0.776416 2.07135,2.018303 0.403,4.920288 0,0 -2.63631,-1.491995 -4.27668,-4.113116 z"
       id="path906" />
    <path
       style="fill:#ffccaa;fill-opacity:1;stroke:#ffccaa;stroke-width:0.264583px;stroke-linecap:butt;stroke-linejoin:miter;stroke-opacity:1"
       d="m 312.51537,56.487916 c 0,0 -1.85135,-3.018541 -0.13361,-4.433347 1.297,-1.068267 2.07834,-0.782368 4.05749,0.252952 0,0 -1.48634,2.869833 -3.92388,4.180395 z"
       id="path908" />
    <path
       style="opacity:0.746795;fill:#7358d4;fill-opacity:1;stroke:none;stroke-width:0.264549px;stroke-linecap:butt;stroke-linejoin:miter;stroke-opacity:1"
       d="m 297.39451,45.923834 -0.65707,0.720632 c 0,0 1.13591,-0.479472 2.19311,-0.705008 0.5286,-0.112767 1.5601,-0.03674 2.09471,0.01977 0.53462,0.05652 0.7301,0.38211 1.30231,0.282455 0,0 0.65594,-0.172535 0.31988,-0.6382 0,0 -1.66536,-0.466885 -2.63523,-0.528721 -0.96987,-0.06184 -0.99329,0.21694 -2.61771,0.84907 z"
       id="path910" />
    <path
       style="fill:#7358d4;fill-opacity:1;stroke:#7358d4;stroke-width:0.264583px;stroke-linecap:butt;stroke-linejoin:miter;stroke-opacity:1"
       d="m 297.01662,49.802078 c 0,0 0.79621,-2.423212 5.4003,-0.276939 0,0 -0.27759,0.31178 -0.693,0.31178 l 0.32088,-0.181964 c 0,0 -5.51283,-2.267436 -5.02818,0.147123 z"
       id="path947" />
    <path
       style="opacity:1;fill:#d0b4d2;fill-opacity:1;stroke:#d0b4d2;stroke-width:0.0339689;stroke-miterlimit:4;stroke-dasharray:none;stroke-opacity:1"
       id="path972"
       d="m 296.97985,50.865891 a 0.20622987,0.2035313 0 0 1 -0.20616,0.203531 0.20622987,0.2035313 0 0 1 -0.2063,-0.203386 0.20622987,0.2035313 0 0 1 0.20601,-0.203677 0.20622987,0.2035313 0 0 1 0.20645,0.203241 l -0.20623,2.91e-4 z" />
    <path
       style="display:inline;opacity:0.33;fill:none;stroke:#7358d4;stroke-width:0.264583px;stroke-linecap:butt;stroke-linejoin:miter;stroke-opacity:1"
       d="m 315.31886,50.06295 c 0,0 -2.85784,-2.664433 -5.55752,-0.236376"
       id="path898-0" />
    <path
       style="display:inline;opacity:0.746795;fill:#7358d4;fill-opacity:1;stroke:none;stroke-width:0.264549px;stroke-linecap:butt;stroke-linejoin:miter;stroke-opacity:1"
       d="m 314.90417,46.126163 0.65707,0.720632 c 0,0 -1.13591,-0.479472 -2.19311,-0.705008 -0.5286,-0.112767 -1.5601,-0.03674 -2.09471,0.01977 -0.53462,0.05652 -0.7301,0.38211 -1.30231,0.282455 0,0 -0.65594,-0.172535 -0.31988,-0.6382 0,0 1.66536,-0.466885 2.63523,-0.528721 0.96987,-0.06184 0.99329,0.21694 2.61771,0.84907 z"
       id="path910-0" />
    <path
       style="display:inline;opacity:1;fill:#7358d4;fill-opacity:1;stroke:#7358d4;stroke-width:0.264583px;stroke-linecap:butt;stroke-linejoin:miter;stroke-opacity:1"
       d="m 315.28206,50.004407 c 0,0 -1.35839,-2.279929 -5.46887,-0.172648 0,0 0.79441,0.134948 0.91514,0.06759 l -0.47445,-0.04206 c 0,0 5.51283,-2.267436 5.02818,0.147123 z"
       id="path947-1" />
  </g>
  <g
     id="layer15"
     style="display:inline"
     transform="translate(-277.20048,-45.124313)">
    <path
       style="display:inline;fill:#ede3e2;fill-opacity:1;stroke:none;stroke-width:0.27436px;stroke-linecap:butt;stroke-linejoin:miter;stroke-opacity:1"
       d="m 340.98065,109.25227 -61.89582,0.0692"
       id="path942" />
    <path
       style="display:inline;fill:#ede3e2;fill-opacity:1;stroke:none;stroke-width:0.27436px;stroke-linecap:butt;stroke-linejoin:miter;stroke-opacity:1"
       d="m 341.06228,108.93603 -61.96495,-0.0743"
       id="path938" />
    <path
       id="path998-4"
       style="display:inline;fill:#ede3e2;fill-opacity:1;stroke:none;stroke-width:0.27436px;stroke-linecap:butt;stroke-linejoin:miter;stroke-opacity:1"
       d="m 340.16122,116.6037 -61.13319,-0.14872 c 0.0958,-3.62867 0.0399,-7.25589 -0.0124,-10.88439 l 61.06496,-0.13847 c 1.24308,4.38892 1.23192,7.25525 0.0806,11.17158 z" />
    <path
       id="path996"
       style="fill:#f79a1c;fill-opacity:1;stroke:#f79a1c;stroke-width:0.264583px;stroke-linecap:butt;stroke-linejoin:miter;stroke-opacity:1"
       d="m 335.9265,105.50123 h -57.67246 c -1.86933,-0.90005 -0.27695,-2.14604 -0.27695,-2.14604 h 57.88017 c 0,0 6.85422,-0.76165 7.33243,7.73725 -0.49111,8.4989 -7.34533,7.73744 -7.34533,7.73744 h -57.88017 c 0,0 -1.59238,-1.24625 0.27695,-2.1463 h 57.67246 c 0,0 4.56949,0.0691 5.06058,-5.59114 -0.47819,-5.66029 -5.04768,-5.59121 -5.04768,-5.59121 z" />
    <path
       id="path998-4-4"
       style="display:inline;fill:#ede3e2;fill-opacity:1;stroke:none;stroke-width:0.27436px;stroke-linecap:butt;stroke-linejoin:miter;stroke-opacity:1"
       d="m 342.11173,132.04279 -61.13319,-0.14872 c 0.0958,-3.62867 0.0399,-7.25589 -0.0124,-10.88439 l 61.06496,-0.13847 c 1.24308,4.38892 1.23192,7.25525 0.0806,11.17158 z" />
    <path
       id="path996-0"
       style="display:inline;fill:#f79a1c;fill-opacity:1;stroke:#f79a1c;stroke-width:0.264583px;stroke-linecap:butt;stroke-linejoin:miter;stroke-opacity:1"
       d="m 337.87701,120.94044 h -57.67246 c -1.86933,-0.90005 -0.27695,-2.14635 -0.27695,-2.14635 h 57.88017 c 0,0 6.85422,-0.76146 7.33243,7.73744 -0.49111,8.4989 -7.34533,7.73724 -7.34533,7.73724 H 279.9147 c 0,0 -1.59238,-1.2461 0.27695,-2.14615 h 57.67246 c 0,0 4.56949,0.0692 5.06058,-5.59109 -0.47819,-5.66029 -5.04768,-5.59109 -5.04768,-5.59109 z" />
    <path
       id="path998-4-4-8"
       style="display:inline;fill:#ede3e2;fill-opacity:1;stroke:none;stroke-width:0.27436px;stroke-linecap:butt;stroke-linejoin:miter;stroke-opacity:1"
       d="m 340.39036,146.71239 -61.13319,-0.14872 c 0.0958,-3.62867 0.0399,-7.25589 -0.0124,-10.88439 l 61.06496,-0.13847 c 1.24308,4.38892 1.23192,7.25525 0.0806,11.17158 z" />
    <path
       id="path996-0-4"
       style="display:inline;fill:#f79a1c;fill-opacity:1;stroke:#f79a1c;stroke-width:0.264583px;stroke-linecap:butt;stroke-linejoin:miter;stroke-opacity:1"
       d="m 336.15564,135.61004 h -57.67246 c -1.86933,-0.90005 -0.27695,-2.14635 -0.27695,-2.14635 h 57.88017 c 0,0 6.85422,-0.76146 7.33243,7.73744 -0.49111,8.4989 -7.34533,7.73724 -7.34533,7.73724 h -57.88017 c 0,0 -1.59238,-1.2461 0.27695,-2.14615 h 57.67246 c 0,0 4.56949,0.0692 5.06058,-5.59109 -0.47819,-5.66029 -5.04768,-5.59109 -5.04768,-5.59109 z" />
    <path
       id="path998-4-4-8-4"
       style="display:inline;fill:#ede3e2;fill-opacity:1;stroke:none;stroke-width:0.27436px;stroke-linecap:butt;stroke-linejoin:miter;stroke-opacity:1"
       d="m 280.51346,161.57754 61.13319,-0.14872 c -0.0958,-3.62867 -0.0399,-7.25589 0.0124,-10.88439 l -61.06496,-0.13847 c -1.24308,4.38892 -1.23192,7.25525 -0.0806,11.17158 z" />
    <path
       id="path996-0-4-2"
       style="display:inline;fill:#f79a1c;fill-opacity:1;stroke:#f79a1c;stroke-width:0.264583px;stroke-linecap:butt;stroke-linejoin:miter;stroke-opacity:1"
       d="m 284.74818,150.47519 h 57.67246 c 1.86933,-0.90005 0.27695,-2.14635 0.27695,-2.14635 h -57.88017 c 0,0 -6.85422,-0.76146 -7.33243,7.73744 0.49111,8.4989 7.34533,7.73724 7.34533,7.73724 h 57.88017 c 0,0 1.59238,-1.2461 -0.27695,-2.14615 h -57.67246 c 0,0 -4.56949,0.0692 -5.06058,-5.59109 0.47819,-5.66029 5.04768,-5.59109 5.04768,-5.59109 z" />
  </g>
  <g
     id="layer10"
     style="display:inline"
     transform="translate(-277.20048,-45.124313)">
    <rect
       style="display:inline;fill:#1e1743;fill-opacity:1;fill-rule:nonzero;stroke:none;stroke-width:0.397929"
       id="rect3184-2"
       width="23.939215"
       height="17.197916"
       x="292.95135"
       y="118.95884"
       clip-path="url(#clipPath3247-2)"
       transform="translate(0.00241545,0.02749984)" />
    <rect
       style="fill:url(#pattern3220);fill-opacity:1;fill-rule:nonzero;stroke:none;stroke-width:0.397929"
       id="rect3184"
       width="23.939215"
       height="17.197916"
       x="292.95135"
       y="118.95884"
       clip-path="url(#clipPath3247)" />
    <path
       style="fill:#7358ff;fill-opacity:1;stroke:#7358ff;stroke-width:0.264583px;stroke-linecap:butt;stroke-linejoin:miter;stroke-opacity:1"
       d="m 313.09812,98.233268 c 0,0 5.60164,1.016242 5.29221,4.140792 0,0 -0.13512,0.42266 -0.48919,0.81333 h -24.27701 c 0,0 -0.35026,-5.177221 1.03648,-7.783909 l 9.68552,-0.699198 0.81672,4.962059 z"
       id="path989" />
    <path
       style="display:inline;opacity:1;fill:#4825ff;fill-opacity:1;stroke:#4825ff;stroke-width:0.264583px;stroke-linecap:butt;stroke-linejoin:miter;stroke-opacity:1"
       d="m 296.87499,121.08106 -1.3656,-17.81543 -0.84878,-7.862148 c 0,0 -1.00167,-5.383953 4.75551,-6.196638 0,0 5.61638,-0.719855 4.93001,5.497439 l -2.20256,26.364997"
       id="path876" />
    <path
       style="fill:#4825ff;fill-opacity:1;stroke:#4825ff;stroke-width:0.264583px;stroke-linecap:butt;stroke-linejoin:miter;stroke-opacity:1"
       d="m 308.41157,121.33298 c -0.58144,-5.2415 -3.29197,-21.3897 -3.29197,-21.3897 0,0 0.99294,-3.078484 4.22065,-3.155644 0,0 5.51653,-0.945063 5.11258,6.387054 l -0.99969,18.14537"
       id="path993" />
  </g>
</svg>
